<svg xmlns="http://www.w3.org/2000/svg" xmlns:xlink="http://www.w3.org/1999/xlink" width="592" height="864">
    <g transform="matrix(1.0,0.0,0.0,1.0,0.0,0.0)">
        <g>
            <path class="cara" fill="#000000" fill-opacity="1.0" d="M 158.1 171.8 C 158.1 171.8 158.3 171.8 158.4 171.8 C 158.4 171.9 158.6 172.2 158.6 172.2 C 158.6 172.2 159.3 173.6 159.4 174.3 C 159.9 176.5 160.1 178.6 160.1 180.9 C 160.1 184.9 161.0 188.9 161.4 192.9 C 161.9 196.3 161.9 199.8 161.9 203.3 C 161.9 207.3 161.8 210.9 161.9 215.0 C 162.0 218.7 162.3 222.3 162.4 225.9 C 162.6 232.8 162.3 239.7 162.7 246.5 C 163.0 252.7 163.8 258.6 164.7 264.7 C 165.5 270.5 165.9 278.5 166.4 283.7 C 167.0 289.6 167.7 295.5 168.7 301.4 C 170.2 309.7 172.6 317.7 174.7 325.9 C 176.9 334.1 178.9 342.3 181.6 350.4 C 184.9 359.8 188.6 369.3 192.7 378.4 C 195.9 385.5 199.7 392.4 203.5 399.1 C 207.3 405.6 210.8 412.5 214.9 418.8 C 218.4 424.1 222.7 428.9 226.8 433.8 C 228.9 436.3 230.9 439.1 233.0 441.6 C 235.3 444.5 237.9 447.2 240.6 449.7 C 246.9 455.6 254.2 460.4 261.5 464.9 C 264.7 466.9 268.2 468.7 271.6 470.0 C 274.6 471.2 277.5 472.3 280.8 472.6 C 286.6 473.3 292.3 473.1 298.2 472.8 C 302.0 472.5 305.9 472.5 309.6 471.4 C 314.7 469.8 318.9 467.1 323.4 464.2 C 333.0 458.1 340.4 448.3 345.7 438.3 C 349.1 432.0 352.3 425.8 354.9 419.1 C 357.0 413.6 359.2 408.2 361.1 402.6 C 366.1 388.1 370.9 373.5 375.4 358.8 C 378.8 347.5 382.5 336.2 385.2 324.6 C 388.3 311.3 390.1 297.8 392.3 284.3 C 393.9 273.9 395.1 263.3 395.9 252.8 C 396.5 245.0 396.5 237.3 396.8 229.5 C 397.1 220.9 397.9 212.3 397.5 203.8 C 397.4 201.0 397.1 198.3 396.5 195.7 C 395.7 192.4 394.7 189.4 394.6 186.1 C 394.6 186.0 393.4 187.9 392.8 188.9 C 392.7 189.1 392.3 189.4 392.1 189.2 C 391.8 189.0 391.8 188.6 391.9 188.4 C 392.5 187.3 393.2 186.1 393.8 184.9 C 394.2 184.2 394.9 182.9 395.9 183.8 C 396.2 184.0 396.3 184.5 396.3 184.8 C 396.3 186.1 396.3 187.4 396.5 188.6 C 396.9 191.0 397.8 193.2 398.3 195.6 C 398.9 198.2 399.2 200.9 399.3 203.6 C 399.5 212.0 398.8 220.4 398.6 228.9 C 398.3 235.4 398.4 241.0 398.1 247.4 C 397.7 254.2 397.0 261.0 396.3 267.9 C 395.0 280.1 392.8 292.2 390.9 304.3 C 389.8 311.2 388.4 318.2 386.9 325.0 C 384.3 336.3 380.7 347.2 377.4 358.3 C 375.3 365.1 373.0 372.8 370.7 379.8 C 367.9 388.6 364.7 397.7 361.5 406.5 C 359.7 411.8 357.7 416.8 355.6 422.1 C 353.0 428.6 349.6 434.8 346.2 441.0 C 340.7 450.9 333.0 460.3 323.3 466.4 C 318.9 469.1 314.8 471.6 309.9 473.1 C 306.4 474.1 302.8 474.2 299.3 474.4 C 294.1 474.7 289.1 474.9 283.9 474.6 C 281.4 474.4 278.9 474.2 276.5 473.6 C 270.8 472.0 265.1 469.2 260.1 466.1 C 252.8 461.6 245.5 456.7 239.2 450.7 C 234.1 445.9 230.0 440.4 225.6 435.0 C 222.1 430.8 218.5 426.7 215.4 422.4 C 212.5 418.4 210.2 414.2 207.8 409.9 C 205.9 406.6 204.0 403.2 202.1 399.9 C 198.2 393.1 194.4 386.2 191.2 379.1 C 187.1 370.1 183.5 360.7 180.2 351.4 C 177.4 343.2 175.4 334.8 173.2 326.5 C 172.4 323.3 171.3 320.2 170.5 317.1 C 169.1 312.1 168.1 307.2 167.2 302.1 C 165.3 291.6 164.5 281.0 163.6 270.3 C 163.1 264.2 161.9 258.1 161.4 252.0 C 160.7 243.2 160.9 234.4 160.8 225.6 C 160.8 221.8 160.4 217.8 160.4 214.0 C 160.2 209.4 160.3 206.1 160.3 201.5 C 160.4 196.9 159.9 192.9 159.3 188.3 C 159.1 186.6 158.7 184.3 158.8 182.5 C 158.9 180.1 159.0 177.9 158.6 175.6 C 158.4 174.5 157.6 173.3 157.6 172.3 C 157.6 171.6 158.4 171.7 158.6 172.2" />
                        
            <path class="barba" stroke="#000000" fill="#000000" stroke-opacity="1.0" fill-opacity="1.0" d="M 234.4 334.4 C 234.4 334.4 237.3 334.6 238.8 334.6 C 241.1 334.7 243.5 335.6 245.8 336.0 C 247.5 336.4 250.1 336.8 251.9 337.4 C 253.2 337.8 254.6 338.5 255.9 339.0 C 258.8 340.1 261.8 340.7 264.8 341.3 C 267.2 341.8 269.4 342.2 271.9 342.2 C 275.8 342.3 279.8 341.7 283.7 341.5 C 287.3 341.3 290.6 341.2 294.2 340.6 C 297.4 340.2 300.6 339.5 303.9 339.1 C 307.5 338.6 311.0 338.4 314.6 338.0 C 320.0 337.3 325.5 336.3 330.9 336.3 C 336.0 336.2 341.1 336.2 346.2 336.4 C 350.5 336.5 354.9 336.6 359.1 337.4 C 361.7 337.9 364.1 338.7 366.7 339.3 C 369.8 340.1 372.3 340.5 375.4 341.5 C 376.9 341.9 377.9 342.3 379.4 342.9 C 380.2 343.2 381.0 343.6 381.9 343.8 C 382.5 344.0 383.2 344.2 383.9 344.4 C 384.3 344.5 384.7 344.8 384.5 345.3 C 384.2 346.0 382.9 346.0 382.3 345.8 C 379.7 345.1 377.4 343.9 374.9 343.2 C 371.5 342.2 370.0 341.9 366.4 341.1 C 364.1 340.5 361.5 339.6 359.1 339.1 C 353.5 338.1 347.7 338.0 342.1 338.0 C 339.3 338.0 333.9 337.9 331.0 338.0 C 325.5 338.1 320.1 339.0 314.7 339.7 C 311.1 340.1 307.5 340.3 303.9 340.8 C 299.4 341.4 294.9 342.4 290.4 342.9 C 286.6 343.2 282.7 343.3 278.9 343.5 C 275.9 343.7 272.8 344.1 269.8 343.9 C 265.7 343.5 261.5 342.5 257.6 341.3 C 255.4 340.6 253.4 339.6 251.3 338.9 C 249.1 338.2 246.7 337.9 244.6 337.4 C 240.9 336.5 237.5 335.8 233.7 336.0 C 229.6 336.2 225.5 337.6 221.8 339.3 C 218.2 340.9 215.0 343.4 211.7 345.6 C 209.2 347.2 206.6 348.5 204.1 350.2 C 202.4 351.2 201.6 352.0 200.1 353.3 C 197.8 355.0 195.5 356.6 193.5 358.6 C 191.9 360.2 190.7 361.6 189.2 363.3 C 188.3 364.4 187.4 365.5 186.4 366.5 C 186.2 366.8 186.0 367.1 185.9 367.4 C 185.9 367.4 186.4 367.7 186.4 367.9 C 186.5 368.1 186.3 368.4 186.1 368.5 C 185.4 368.6 184.8 367.8 184.9 367.3 C 184.9 366.2 186.2 365.1 186.7 364.4 C 189.9 360.7 193.0 356.9 196.9 353.9 C 198.9 352.4 200.8 350.7 202.9 349.3 C 205.5 347.5 208.4 346.0 211.0 344.3 C 214.3 342.1 217.5 339.7 221.1 338.0 C 227.2 334.9 233.7 334.0 240.4 334.8" />
                        
            <path class="boca" stroke="#000000" fill="#000000" stroke-opacity="1.0" fill-opacity="1.0" d="M 298.5 368.7 C 298.5 368.7 300.5 368.7 301.4 368.7 C 304.2 369.0 305.2 369.1 307.9 369.4 C 312.5 370.0 317.2 371.5 321.6 373.1 C 324.9 374.3 328.2 375.5 331.3 377.1 C 333.5 378.3 334.9 379.4 337.2 380.9 C 339.5 382.4 341.4 383.6 343.3 385.6 C 344.2 386.5 345.1 387.9 345.8 388.8 C 346.5 389.8 347.3 390.9 347.9 392.0 C 348.3 393.0 348.5 394.0 348.8 395.1 C 349.2 396.2 349.8 397.1 350.1 398.2 C 350.5 399.9 350.3 401.7 350.3 403.5 C 350.3 404.9 350.4 406.4 350.3 407.8 C 350.1 411.3 348.6 414.5 347.1 417.6 C 345.4 421.4 343.1 424.8 340.7 428.2 C 335.9 434.7 331.0 440.7 324.2 445.2 C 322.1 446.6 319.9 448.5 317.4 449.3 C 313.8 450.6 309.8 450.4 306.1 450.6 C 301.0 450.7 295.6 450.7 290.7 448.8 C 289.5 448.3 288.7 447.8 287.5 447.2 C 286.9 447.0 286.1 446.7 285.7 446.2 C 284.9 445.3 286.0 444.5 286.9 444.8 C 288.1 445.3 289.4 446.1 290.6 446.6 C 292.2 447.4 293.9 447.7 295.6 448.0 C 299.1 448.7 302.5 448.8 306.1 448.6 C 309.3 448.5 312.5 448.6 315.6 447.9 C 319.2 447.0 322.6 444.1 325.4 442.2 C 329.5 439.5 332.8 435.6 335.8 431.7 C 339.1 427.2 342.6 422.9 345.0 417.8 C 346.1 415.5 347.4 413.2 348.1 410.7 C 348.8 407.9 348.6 405.3 348.6 402.3 C 348.6 400.9 348.7 399.5 348.3 398.1 C 348.0 397.2 347.5 396.4 347.2 395.5 C 346.8 394.4 346.6 393.3 346.1 392.3 C 343.8 387.8 340.2 384.9 336.1 382.2 C 333.9 380.7 332.6 379.6 330.4 378.5 C 328.4 377.5 325.7 376.4 323.8 375.6 C 321.8 374.8 319.7 374.2 317.7 373.6 C 315.3 372.8 313.0 372.0 310.6 371.5 C 305.8 370.5 300.7 370.0 295.8 370.3 C 290.2 370.6 285.0 372.5 280.0 374.6 C 278.0 375.5 276.5 376.0 274.6 376.9 C 271.7 378.4 268.9 380.5 266.4 382.7 C 262.8 385.9 259.0 389.0 256.7 393.3 C 256.7 393.4 257.0 393.3 257.1 393.5 C 257.4 393.7 257.1 394.1 257.1 394.2 C 257.1 394.3 256.6 394.5 256.6 394.5 C 256.2 394.7 255.7 394.5 255.6 394.1 C 255.2 393.0 257.0 390.7 257.3 390.1 C 258.0 388.8 259.3 387.5 260.3 386.5 C 262.8 384.0 265.3 381.5 268.1 379.5 C 269.1 378.8 271.1 377.2 272.4 376.4 C 274.6 375.1 276.9 374.3 279.3 373.3 C 284.4 371.0 289.9 369.0 295.6 368.7 C 298.7 368.5 301.7 368.8 304.7 369.0" />
            <path class="ojo_iz" fill="#007700" fill-opacity="1.0" d="M 212.5 240.4 C 212.5 240.4 212.9 240.4 213.1 240.4 C 213.4 240.5 213.7 240.5 214.0 240.7 C 214.9 241.0 215.3 241.8 215.3 242.7 C 215.3 242.7 215.3 242.9 215.3 243.1 C 215.3 243.5 215.3 243.8 215.2 244.1 C 215.2 244.2 215.2 244.4 215.2 244.5 C 215.2 244.5 215.2 244.7 215.2 244.8 C 215.1 245.1 215.2 245.4 215.1 245.6 C 214.9 246.6 214.6 247.7 213.6 248.0 C 213.6 248.1 213.3 248.3 213.2 248.4 C 212.9 248.7 212.6 248.8 212.2 248.9 C 211.3 249.1 210.4 248.7 209.9 247.9 C 209.9 247.9 209.6 247.6 209.5 247.5 C 209.3 247.1 209.1 246.8 209.0 246.4 C 208.7 245.5 209.0 244.1 209.3 243.3 C 210.0 241.1 211.7 240.0 214.0 240.6M 211.0 243.5 C 211.0 243.5 210.8 243.6 210.7 243.7 C 210.7 243.7 210.6 243.9 210.6 244.1 C 210.5 244.3 210.5 244.6 210.4 244.8 C 210.4 244.9 210.4 245.0 210.4 245.1 C 210.5 245.5 210.6 246.1 210.7 246.6 C 210.7 246.6 210.9 246.8 211.0 246.9 C 211.2 247.0 211.4 247.1 211.7 247.0 C 211.7 247.0 211.6 246.7 211.6 246.5 C 211.5 246.2 211.5 245.9 211.4 245.6 C 211.3 244.9 211.4 244.2 211.5 243.6 C 211.6 243.5 210.9 243.4 210.7 243.6M 213.0 245.8 C 213.0 245.8 213.0 245.8 213.0 245.8 C 213.0 245.8 213.0 245.8 213.0 245.8M 213.7 242.7 C 213.7 242.7 213.5 242.9 213.5 243.0 C 213.3 243.2 213.2 243.4 213.1 243.6 C 213.1 243.7 213.6 243.4 213.8 243.4 C 213.9 243.4 213.9 242.9 213.8 242.7M 212.3 241.9 C 212.3 241.9 212.1 241.9 212.0 242.0 C 211.8 242.1 211.6 242.2 211.4 242.4 C 211.4 242.4 211.7 242.5 211.9 242.6 C 211.9 242.6 212.1 242.1 212.3 241.9" />
            <path class="ojo_dr" fill="#007700" fill-opacity="1.0" d="M 339.1 238.0 C 339.1 238.0 339.4 238.0 339.6 238.0 C 340.0 238.1 340.3 238.3 340.6 238.6 C 341.4 239.4 341.5 240.4 341.6 241.5 C 341.6 241.5 341.6 241.6 341.6 241.6 C 341.6 241.7 341.6 241.8 341.6 241.8 C 341.6 241.9 341.6 242.2 341.6 242.3 C 341.6 242.3 341.5 243.0 341.5 243.3 C 341.5 243.6 341.4 243.9 341.4 244.2 C 341.2 245.1 340.4 245.8 339.6 246.1 C 338.3 246.6 336.1 247.1 335.4 245.4 C 335.2 244.9 335.3 244.3 335.3 243.8 C 335.3 243.7 335.0 243.5 334.9 243.3 C 334.7 243.2 334.6 243.0 334.5 242.8 C 334.1 242.2 334.0 241.3 334.3 240.7 C 334.7 239.1 336.1 238.9 337.6 238.9 C 337.6 238.9 337.8 238.8 337.9 238.7 C 338.0 238.5 338.2 238.4 338.4 238.3 C 338.9 237.9 339.5 238.0 340.1 238.2M 336.7 244.4 C 336.7 244.4 336.7 244.7 336.7 244.9 C 336.8 245.0 337.0 245.2 337.1 245.3 C 337.6 245.4 338.5 245.0 338.8 244.9 C 338.8 244.9 338.6 244.9 338.4 244.9 C 338.2 244.9 337.9 244.7 337.7 244.5 C 337.6 244.5 337.0 244.5 336.7 244.4M 338.1 241.1 C 338.1 241.1 338.0 241.5 338.0 241.7 C 338.0 242.2 338.0 242.7 338.3 243.1 C 338.3 243.1 338.6 243.0 338.8 242.9 C 339.1 242.7 339.3 242.1 339.3 241.7 C 339.2 241.1 338.2 240.8 338.0 241.5M 336.7 240.0 C 336.7 240.0 336.2 240.2 336.0 240.4 C 335.5 240.7 335.4 241.4 335.5 241.9 C 335.6 241.9 335.7 241.5 335.7 241.4 C 336.0 240.8 336.3 240.4 336.7 240.0M 339.1 239.7 C 339.1 239.7 339.5 239.8 339.6 239.9 C 339.6 239.9 339.5 239.6 339.3 239.6" />
            <path class="nariz" fill="#000000" fill-opacity="1.0" d="M 288.4 222.4 C 288.4 222.4 288.9 222.7 288.9 222.9 C 289.0 223.6 289.2 224.4 289.2 225.1 C 289.2 227.1 289.2 229.1 288.8 231.1 C 287.4 237.7 285.4 244.0 283.0 250.3 C 281.7 253.8 280.0 257.3 278.3 260.6 C 276.7 263.5 275.6 265.1 274.3 267.9 C 272.8 271.3 271.7 274.8 270.5 278.4 C 268.3 285.3 267.1 292.7 268.5 299.9 C 270.8 311.7 278.1 321.1 286.5 329.3 C 287.6 330.3 288.6 331.3 289.7 332.4 C 291.0 333.7 292.3 335.3 294.0 336.2 C 295.4 337.0 297.2 337.1 298.5 338.0 C 299.4 338.6 299.5 339.4 299.5 340.4 C 299.4 340.7 299.2 341.0 298.9 341.0 C 298.3 341.0 298.3 340.3 298.1 340.0 C 298.0 339.6 297.6 339.4 297.3 339.3 C 295.9 338.7 294.3 338.4 293.0 337.6 C 291.1 336.6 289.7 334.8 288.2 333.4 C 286.6 331.8 284.9 330.2 283.3 328.6 C 280.9 326.1 278.4 323.6 276.3 320.8 C 274.9 318.9 273.4 316.5 272.3 314.6 C 270.8 312.4 269.7 309.8 268.8 307.3 C 266.9 301.7 265.7 296.0 266.3 290.1 C 266.6 285.9 267.7 281.7 269.0 277.8 C 269.7 275.6 270.8 271.9 271.8 269.5 C 273.7 264.8 276.5 260.7 278.6 256.2 C 280.7 251.7 282.7 247.2 284.2 242.5 C 285.1 239.8 286.2 235.4 286.9 233.1 C 287.5 230.7 287.9 228.2 288.0 225.7 C 288.0 224.9 287.7 223.6 287.9 222.8 C 288.1 222.2 288.7 222.4 288.9 222.8" />
            <g class="pelo">
                <path stroke="#000000" fill="#000000" stroke-opacity="1.0" fill-opacity="1.0" d="M 162.3 182.2 C 162.3 182.2 163.3 182.1 163.9 182.2 C 165.3 182.3 165.7 182.4 167.2 182.7 C 169.6 183.2 171.8 184.2 174.0 185.2 C 176.6 186.3 179.0 188.0 181.3 189.6 C 182.4 190.4 189.0 194.9 191.5 197.2 C 193.6 199.1 195.3 201.1 197.0 203.4 C 197.0 203.5 197.1 203.6 197.2 203.7 C 197.5 204.1 197.8 204.4 198.1 204.8 C 198.3 205.1 198.6 205.3 198.4 205.6 C 197.9 206.5 196.6 205.0 196.4 204.7 C 194.8 203.0 193.7 201.1 192.0 199.6 C 187.6 195.6 182.8 192.0 177.8 188.8 C 175.1 187.0 172.1 185.4 169.0 184.5 C 166.3 183.7 163.7 183.0 160.9 183.4 C 158.3 183.9 155.6 185.3 153.6 187.0 C 152.2 188.2 150.9 189.4 149.7 190.8 C 149.1 191.5 148.7 192.4 148.8 193.4 C 148.9 193.4 148.9 193.7 148.9 193.8 C 148.8 194.0 148.5 194.2 148.3 194.1 C 147.7 194.0 147.8 192.8 147.8 192.4 C 148.2 190.3 150.2 188.5 151.7 187.1 C 154.3 184.8 157.4 182.9 160.8 182.3 C 162.3 182.1 163.8 182.2 165.3 182.3" />
                <path stroke="#000000" fill="#000000" stroke-opacity="1.0" fill-opacity="1.0" d="M 189.3 179.8 C 189.3 179.8 189.9 179.9 190.1 179.9 C 190.8 180.2 191.4 180.5 192.1 180.9 C 193.9 182.0 195.6 183.2 197.3 184.7 C 201.6 188.4 204.7 193.6 207.2 198.6 C 208.3 200.7 209.9 204.3 211.4 207.1 C 211.7 207.7 212.0 208.2 212.4 208.8 C 212.8 209.5 213.9 210.5 213.6 211.5 C 213.5 211.8 213.3 212.1 213.2 212.4 C 213.1 212.5 213.0 212.7 212.9 212.7 C 211.9 213.1 212.2 211.7 212.4 211.3 C 212.4 211.3 212.3 211.2 212.2 211.1 C 212.0 210.9 211.7 210.6 211.4 210.3 C 210.5 208.9 210.5 208.8 209.5 206.9 C 208.1 204.2 206.5 200.7 205.4 198.4 C 202.9 193.2 199.5 187.7 194.7 184.3 C 193.0 183.0 192.7 182.8 190.9 181.7 C 190.5 181.4 189.8 181.0 189.3 181.1 C 189.2 181.1 189.6 181.4 189.9 181.5 C 190.1 181.6 192.0 182.0 191.1 182.7 C 190.8 182.9 190.1 182.6 189.9 182.6 C 189.3 182.4 188.5 182.0 188.2 181.4 C 187.8 180.6 188.6 179.7 189.5 179.8 C 189.9 179.9 190.2 180.0 190.7 180.1" />
                <path stroke="#000000" fill="#000000" stroke-opacity="1.0" fill-opacity="1.0" d="M 213.6 175.6 C 213.6 175.6 214.0 175.6 214.3 175.7 C 214.6 175.7 215.0 175.9 215.3 176.0 C 216.4 176.5 217.3 177.2 218.3 177.9 C 220.5 179.4 222.4 181.4 224.2 183.2 C 226.8 185.8 229.6 188.9 231.6 191.1 C 234.9 194.5 238.0 197.9 240.7 201.9 C 242.0 203.8 243.1 205.5 244.5 207.3 C 245.1 208.0 245.6 208.7 246.2 209.4 C 246.3 209.6 246.4 210.0 246.3 210.2 C 245.6 211.0 244.3 209.2 244.1 209.0 C 244.0 208.9 243.9 208.9 243.9 208.8 C 241.4 206.1 239.7 202.9 237.5 200.0 C 236.1 198.0 234.4 196.2 232.7 194.4 C 226.1 187.2 225.6 186.5 221.0 181.8 C 219.8 180.6 218.4 179.4 217.0 178.5 C 215.5 177.4 214.2 176.4 212.3 176.6 C 212.3 176.6 211.7 176.5 211.7 176.3 C 211.6 176.1 211.7 175.8 211.9 175.7 C 212.9 175.2 214.3 175.7 215.2 176.0" />
                <path stroke="#000000" fill="#000000" stroke-opacity="1.0" fill-opacity="1.0" d="M 233.8 172.6 C 233.8 172.6 234.4 172.6 234.7 172.7 C 235.4 172.7 236.0 172.9 236.6 173.1 C 239.4 174.0 242.1 174.9 244.7 176.3 C 252.0 180.1 258.0 185.7 263.9 191.4 C 265.9 193.5 267.8 195.6 269.5 198.0 C 269.6 198.2 271.1 199.7 270.6 200.3 C 270.1 200.8 269.2 200.2 268.9 199.8 C 268.3 199.0 267.6 198.2 267.0 197.4 C 263.8 193.3 259.9 189.8 256.1 186.3 C 250.2 180.8 243.5 176.4 235.8 174.2 C 234.8 173.9 233.4 173.5 232.4 173.8 C 231.9 174.0 231.7 174.1 231.2 174.3 C 231.1 174.4 230.7 174.8 230.7 174.7 C 230.7 174.7 230.3 175.0 230.2 174.9 C 230.0 174.9 229.8 174.6 229.8 174.4 C 229.8 173.9 230.7 173.3 231.1 173.1 C 232.8 172.2 234.6 172.6 236.5 173.1" />
                <path stroke="#000000" fill="#000000" stroke-opacity="1.0" fill-opacity="1.0" d="M 267.8 170.5 C 267.8 170.5 268.5 170.5 268.8 170.6 C 269.4 170.7 270.0 170.9 270.6 171.1 C 272.5 171.6 274.1 172.4 275.8 173.4 C 280.1 175.8 283.7 180.3 286.4 184.3 C 288.3 187.1 288.6 187.7 290.5 190.2 C 290.8 190.6 291.8 191.2 291.1 191.7 C 290.5 192.1 289.5 191.1 289.2 190.7 C 287.0 188.4 285.5 185.6 283.6 183.1 C 281.5 180.5 279.5 177.9 277.0 175.9 C 274.9 174.2 272.6 173.1 270.1 172.3 C 268.5 171.7 267.1 171.8 265.5 171.5 C 265.5 171.5 265.1 171.2 265.1 170.9 C 265.2 170.7 265.4 170.6 265.6 170.6 C 265.7 170.6 266.3 170.5 266.6 170.5 C 267.0 170.4 267.3 170.4 267.7 170.4 C 268.7 170.4 269.6 170.8 270.6 171.0M 265.5 171.5 C 265.5 171.5 265.5 171.5 265.5 171.5" />
                <path stroke="#000000" fill="#000000" stroke-opacity="1.0" fill-opacity="1.0" d="M 290.2 167.2 C 290.2 167.2 290.6 167.2 290.8 167.2 C 291.1 167.2 291.4 167.3 291.7 167.4 C 292.4 167.6 293.0 168.1 293.6 168.4 C 295.4 169.6 297.1 171.6 298.4 173.2 C 303.4 179.4 306.3 186.4 309.7 193.4 C 310.9 195.7 312.1 197.8 313.6 199.9 C 313.7 200.2 315.3 201.2 314.9 201.8 C 314.4 202.6 313.0 201.0 313.0 201.0 C 312.1 200.3 311.3 199.0 310.7 198.2 C 307.0 193.0 305.2 186.6 302.0 181.1 C 299.8 177.3 297.4 173.5 294.1 170.5 C 293.1 169.6 292.0 168.5 290.5 168.3 C 289.9 168.2 289.5 168.4 289.0 168.7 C 288.8 168.8 288.7 168.9 288.6 169.0 C 288.6 169.1 288.5 169.2 288.5 169.1 C 288.5 169.1 288.2 169.4 288.0 169.4 C 287.6 169.3 287.5 168.8 287.7 168.6 C 288.6 167.1 290.4 167.1 291.8 167.4" />
                <path stroke="#000000" fill="#000000" stroke-opacity="1.0" fill-opacity="1.0" d="M 321.7 162.6 C 321.7 162.6 322.0 162.6 322.0 162.7 C 322.3 162.8 322.5 162.9 322.7 163.1 C 323.4 163.6 323.7 163.9 324.4 164.6 C 325.8 166.0 327.1 168.0 328.2 169.5 C 331.7 174.2 335.0 179.0 338.9 183.4 C 340.7 185.4 343.0 188.7 345.8 189.6 C 345.8 189.7 346.0 189.4 346.1 189.4 C 346.4 189.5 346.7 189.6 346.9 189.9 C 347.1 190.5 346.3 190.9 345.9 190.9 C 344.0 190.9 342.1 189.1 340.9 187.8 C 340.3 187.2 339.5 186.4 338.9 185.7 C 333.9 179.9 329.5 173.8 325.1 167.6 C 324.2 166.4 323.4 165.5 322.5 164.5 C 322.2 164.2 321.5 163.7 321.5 163.6 C 321.6 163.6 321.4 163.5 321.3 163.4 C 321.2 163.3 321.2 163.0 321.4 162.8 C 321.7 162.4 322.2 162.8 322.6 163.0" />
                <path stroke="#000000" fill="#000000" stroke-opacity="1.0" fill-opacity="1.0" d="M 347.1 159.3 C 347.1 159.3 347.5 159.5 347.7 159.5 C 348.1 159.7 348.5 159.9 348.8 160.1 C 349.9 161.0 350.8 161.8 351.6 162.9 C 353.9 166.1 355.6 169.9 357.3 173.3 C 359.2 176.9 360.6 180.7 361.9 184.5 C 363.0 187.7 364.1 191.0 365.2 194.2 C 365.6 195.3 366.1 196.7 367.0 197.6 C 367.0 197.6 367.6 196.9 368.0 196.9 C 368.2 196.9 368.5 197.1 368.5 197.4 C 368.6 198.5 366.8 198.9 366.1 198.4 C 364.8 197.6 364.0 195.3 363.6 194.0 C 362.9 192.0 362.2 189.9 361.5 187.9 C 360.3 184.7 359.2 181.3 357.9 178.1 C 356.4 174.5 354.9 171.9 353.0 168.2 C 351.5 165.0 349.9 162.1 346.8 160.3 C 346.8 160.3 346.5 160.1 346.5 160.0 C 346.4 159.8 346.5 159.4 346.8 159.3 C 347.3 159.1 348.4 159.9 348.7 160.1" />
                <path stroke="#000000" fill="#000000" stroke-opacity="1.0" fill-opacity="1.0" d="M 374.4 164.9 C 374.4 164.9 375.1 164.9 375.4 164.9 C 376.1 165.0 376.9 165.2 377.5 165.5 C 379.7 166.7 381.5 168.3 383.2 170.1 C 384.6 171.5 385.8 172.9 386.8 174.6 C 389.2 178.7 390.3 183.7 391.4 188.3 C 391.7 190.0 391.9 191.7 392.4 193.3 C 392.6 193.9 392.7 194.5 392.9 195.0 C 393.2 195.7 393.4 196.3 393.7 197.0 C 394.0 197.8 394.8 199.1 394.4 200.2 C 394.1 201.0 394.2 202.2 393.4 202.5 C 392.9 202.7 392.6 202.2 392.7 201.8 C 392.9 200.7 393.6 200.0 393.0 199.0 C 391.1 195.6 390.5 192.3 389.7 188.5 C 389.2 186.1 388.5 183.4 387.8 181.1 C 386.9 178.5 386.1 175.9 384.5 173.7 C 383.3 171.9 381.8 170.5 380.3 169.0 C 378.4 167.3 376.4 165.8 373.8 166.0 C 373.8 166.0 373.5 166.0 373.4 165.9 C 373.2 165.8 373.1 165.4 373.3 165.2 C 373.4 164.9 373.9 165.0 374.2 164.9 C 374.9 164.9 375.6 165.0 376.3 165.1" />
                <path stroke="#000000" fill="#000000" stroke-opacity="1.0" fill-opacity="1.0" d="M 404.6 185.3 C 404.6 185.3 404.9 185.3 405.0 185.3 C 405.2 185.3 405.5 185.4 405.7 185.5 C 406.4 186.0 406.9 186.4 407.3 187.2 C 408.6 189.3 408.8 191.9 408.8 194.3 C 408.9 201.2 405.9 207.5 404.0 213.9 C 403.3 216.3 402.4 218.8 402.2 221.3 C 402.2 222.0 402.1 222.6 402.1 223.3 C 402.1 223.6 401.9 223.9 401.6 223.9 C 401.2 223.9 401.1 223.5 401.1 223.3 C 401.1 222.5 401.2 221.8 401.2 221.0 C 401.4 218.6 402.0 216.2 402.7 213.8 C 403.4 211.2 404.6 208.4 405.4 205.9 C 406.8 201.5 407.9 196.9 407.6 192.3 C 407.5 190.3 406.9 187.0 404.8 186.3 C 404.7 186.3 404.5 186.3 404.4 186.2 C 404.2 186.1 404.1 185.8 404.1 185.6 C 404.3 185.0 405.2 185.3 405.6 185.5M 404.7 186.3 C 404.7 186.3 404.8 186.2 404.9 186.2 C 404.9 186.2 404.8 186.2 404.8 186.2" />
                <path stroke="#000000" fill="#000000" stroke-opacity="1.0" fill-opacity="1.0" d="M 408.2 227.4 C 408.2 227.4 408.4 227.5 408.5 227.6 C 408.6 227.7 408.8 228.0 408.7 228.2 C 408.4 228.8 408.3 229.6 408.1 230.2 C 407.8 231.7 407.5 233.5 407.2 235.0 C 406.0 240.9 402.5 246.3 399.3 251.4 C 399.1 251.9 397.7 254.3 396.8 254.3 C 395.7 254.2 397.1 252.6 397.2 252.4 C 397.9 251.2 398.6 250.0 399.3 248.8 C 401.2 245.6 402.8 242.5 404.3 239.2 C 405.5 236.4 405.8 233.4 406.7 230.5 C 406.8 230.1 407.3 228.2 407.6 227.7 C 407.9 227.3 408.4 227.4 408.6 227.8" />
                <path stroke="#000000" fill="#000000" stroke-opacity="1.0" fill-opacity="1.0" d="M 414.4 220.1 C 414.4 220.1 414.6 220.1 414.7 220.2 C 414.8 220.2 414.9 220.5 414.9 220.6 C 415.0 221.7 415.2 222.8 415.3 223.9 C 415.4 225.0 415.1 226.7 415.0 227.8 C 414.7 230.1 414.0 232.5 413.0 234.7 C 411.4 238.5 409.7 242.2 407.6 245.7 C 406.7 247.2 404.7 249.7 402.6 248.7 C 401.4 248.2 401.1 246.9 401.4 245.7 C 401.4 245.5 401.5 244.8 401.8 244.6 C 402.1 244.4 402.5 244.7 402.6 245.1 C 402.7 245.8 402.1 247.9 403.7 247.5 C 404.9 247.3 405.8 245.6 406.3 244.7 C 408.0 241.8 409.5 238.8 410.9 235.7 C 412.2 232.6 413.2 229.4 413.7 226.2 C 413.8 225.0 414.0 223.7 414.0 222.5 C 414.0 221.9 413.8 221.2 413.9 220.6 C 414.0 220.0 414.6 219.9 414.9 220.5" />
                <path stroke="#000000" fill="#000000" stroke-opacity="1.0" fill-opacity="1.0" d="M 416.5 199.0 C 416.5 199.0 416.7 199.2 416.8 199.4 C 417.3 200.8 417.7 201.5 417.9 202.9 C 418.1 205.6 417.2 208.5 416.1 211.0 C 413.5 216.5 410.1 221.5 406.5 226.5 C 405.1 228.5 403.3 230.3 402.2 232.5 C 402.1 232.6 402.1 232.6 402.1 232.6 C 402.1 232.6 402.1 232.6 402.1 232.6 C 402.1 232.6 401.8 233.0 401.6 232.9 C 401.3 232.9 401.1 232.6 401.1 232.4 C 401.1 231.8 401.7 231.0 402.0 230.6 C 403.4 228.6 404.7 226.7 406.1 224.7 C 409.7 219.7 413.0 214.5 415.3 208.8 C 416.1 207.0 416.7 204.8 416.6 202.8 C 416.6 201.5 416.0 201.0 415.8 199.6 C 415.7 198.9 416.6 198.7 416.8 199.4 C 417.1 200.1 417.3 200.8 417.6 201.6" />
                <path stroke="#000000" fill="#000000" stroke-opacity="1.0" fill-opacity="1.0" d="M 396.1 153.1 C 396.1 153.1 396.3 153.2 396.4 153.3 C 396.4 153.4 396.4 153.7 396.4 153.8 C 395.6 155.9 395.4 156.5 394.5 158.6 C 394.5 158.6 394.8 158.4 395.0 158.3 C 395.2 158.1 395.6 157.9 395.9 157.8 C 397.1 157.5 398.2 157.4 399.3 157.9 C 402.3 159.1 404.0 162.2 404.2 165.3 C 404.3 167.3 404.0 169.4 403.5 171.2 C 402.7 174.4 401.9 177.5 401.0 180.6 C 400.3 182.7 399.7 184.9 399.0 187.0 C 398.5 188.8 398.1 190.5 399.0 192.2 C 399.0 192.2 399.1 192.4 399.1 192.6 C 399.1 192.8 398.8 193.0 398.6 193.1 C 397.9 193.1 397.5 191.6 397.4 191.2 C 396.9 189.1 397.8 186.7 398.4 184.8 C 399.5 181.2 400.5 178.2 401.3 174.5 C 402.1 171.3 403.4 167.5 402.7 164.1 C 402.1 161.5 399.6 158.1 396.6 158.8 C 395.2 159.1 394.2 160.1 393.3 161.1 C 393.3 161.1 392.8 161.7 392.6 162.1 C 392.4 162.4 392.2 162.7 392.0 162.9 C 391.6 163.2 391.1 163.0 391.1 162.6 C 390.9 161.8 391.9 161.1 392.3 160.3 C 393.4 158.7 395.1 154.2 395.4 153.5 C 395.6 152.9 396.3 153.0 396.4 153.6" />
            </g>
        </g>
    </g>
</svg>