<svg xmlns="http://www.w3.org/2000/svg" xmlns:xlink="http://www.w3.org/1999/xlink" width="592" height="864">
    <g transform="matrix(1.0,0.0,0.0,1.0,0.0,0.0)">
        <g>
            <path stroke="#000000" fill="#000000" stroke-opacity="1.0" fill-opacity="1.0" d="M 219.3 87.4 C 219.3 87.4 220.8 87.4 221.5 87.4 C 222.4 87.5 223.4 87.6 224.3 87.7 C 227.1 87.9 232.0 88.7 234.3 89.2 C 244.4 91.0 253.3 95.3 261.7 101.1 C 265.2 103.6 268.8 106.1 272.1 108.8 C 276.1 112.1 279.5 115.9 283.3 119.4 C 287.1 123.0 291.1 126.3 295.2 129.5 C 300.8 134.0 306.5 137.8 313.1 140.6 C 317.8 142.5 322.8 143.6 327.7 144.1 C 333.7 144.8 339.4 145.4 345.4 145.6 C 358.4 146.1 371.2 144.7 384.1 143.4 C 392.1 142.6 401.1 141.3 408.7 140.3 C 419.3 138.9 419.3 139.0 427.4 137.7 C 430.5 137.2 433.5 136.6 436.6 136.2 C 438.7 135.9 440.6 135.7 442.8 135.7 C 443.4 135.8 444.3 136.1 444.2 136.9 C 444.1 137.8 443.3 137.6 442.7 137.6 C 440.6 137.5 438.7 137.7 436.7 138.0 C 420.2 140.8 403.7 142.8 387.1 144.9 C 374.7 146.4 362.2 147.4 349.7 147.5 C 345.4 147.5 341.0 147.4 336.8 146.9 C 331.3 146.3 325.7 145.9 320.3 144.7 C 314.0 143.3 308.2 140.5 302.7 137.3 C 298.7 134.9 295.2 131.9 291.6 129.0 C 288.3 126.3 285.0 123.6 281.9 120.6 C 278.3 117.2 274.9 113.5 271.1 110.3 C 266.8 106.7 262.1 103.2 257.2 100.4 C 253.5 98.3 249.6 95.8 245.6 94.1 C 241.7 92.6 237.6 91.5 233.5 90.9 C 228.7 90.1 223.6 89.0 218.6 89.2 C 205.8 89.9 193.8 98.8 188.2 110.2 C 185.9 114.9 185.0 120.0 184.4 125.3 C 183.8 130.3 184.2 135.5 185.4 140.4 C 187.7 149.1 195.0 157.0 203.7 159.6 C 205.6 160.2 207.5 160.3 209.4 160.7 C 211.0 161.1 213.6 162.2 215.4 162.0 C 216.3 161.9 215.5 160.2 216.4 160.3 C 217.0 160.4 217.0 161.1 217.0 161.5 C 217.3 162.5 216.5 163.4 215.5 163.6 C 213.4 164.0 210.9 162.8 208.9 162.4 C 206.3 162.0 203.8 161.7 201.3 160.7 C 193.0 157.1 186.7 150.4 183.9 141.8 C 183.0 138.7 182.5 135.5 182.4 132.3 C 182.0 124.8 183.1 116.7 186.3 109.9 C 191.7 98.5 202.8 89.9 215.3 87.8 C 218.3 87.3 221.2 87.4 224.3 87.6" /><path stroke="#000000" fill="#000000" stroke-opacity="1.0" fill-opacity="1.0" d="M 304.6 176.6 C 304.6 176.6 305.0 176.6 305.0 176.8 C 305.2 177.1 305.3 177.2 305.3 177.7 C 305.5 178.6 305.6 179.5 305.7 180.5 C 305.7 183.4 305.9 186.4 305.8 189.3 C 305.5 198.4 305.0 207.4 304.9 216.5 C 304.7 235.5 304.1 254.7 305.6 273.8 C 306.1 279.3 307.0 284.6 307.9 290.1 C 307.9 290.1 308.1 290.6 308.1 290.8 C 308.0 291.2 307.7 291.5 307.4 291.7 C 306.8 291.9 306.2 291.3 306.1 290.8 C 306.1 290.8 305.9 290.1 305.8 289.7 C 305.5 289.0 305.3 288.3 304.7 287.7 C 303.0 285.8 301.0 284.2 298.9 282.7 C 293.4 279.0 286.7 276.9 280.6 274.5 C 273.9 271.9 266.5 271.8 259.4 271.8 C 249.1 271.8 239.0 273.1 229.2 275.9 C 224.0 277.3 218.9 279.1 214.3 281.8 C 211.5 283.4 209.0 285.5 206.6 287.5 C 202.7 290.6 199.4 294.3 196.6 298.4 C 195.1 300.5 193.6 302.6 192.3 304.8 C 189.7 309.4 187.8 314.6 186.5 319.6 C 185.1 324.7 183.8 329.8 183.2 335.1 C 182.3 342.6 182.6 350.3 183.7 357.7 C 185.3 369.2 188.4 380.9 195.2 390.5 C 199.1 395.9 204.5 400.5 210.3 403.8 C 221.2 410.3 233.5 414.6 246.3 415.4 C 249.4 415.6 252.5 415.4 255.6 415.2 C 260.9 414.9 266.2 414.0 271.3 412.7 C 274.2 411.9 278.1 411.0 281.2 410.0 C 286.2 408.2 290.9 405.8 295.3 403.0 C 300.1 399.9 304.5 396.5 308.9 392.8 C 309.6 392.2 311.7 389.1 313.0 390.9 C 313.1 391.1 313.2 391.4 313.2 391.6 C 313.7 393.4 313.9 395.2 314.3 397.0 C 315.5 402.5 316.4 406.2 317.7 412.3 C 319.6 421.1 321.1 429.9 321.9 438.8 C 323.3 453.9 322.3 469.1 321.1 484.2 C 320.2 495.9 318.6 507.8 315.5 519.2 C 314.2 523.9 312.6 528.6 310.8 533.2 C 306.9 543.2 302.8 553.0 297.3 562.1 C 293.0 569.1 288.5 576.4 282.6 582.2 C 276.3 588.4 268.0 592.6 259.4 594.8 C 256.0 595.6 252.6 596.5 249.1 597.0 C 246.3 597.4 243.6 597.4 240.8 597.4 C 231.9 597.3 223.4 593.8 217.3 587.3 C 215.0 584.9 212.5 582.3 211.8 579.0 C 211.8 578.9 211.5 578.2 211.7 578.0 C 211.7 578.0 211.9 577.5 212.1 577.5 C 212.2 577.5 212.3 577.4 212.3 577.4 C 212.4 577.4 212.5 577.3 212.6 577.3 C 212.7 577.4 212.9 577.3 213.0 577.3 C 213.1 577.4 213.4 577.5 213.4 577.7 C 213.9 578.3 213.9 579.3 214.2 579.9 C 215.2 582.0 216.6 583.6 218.2 585.3 C 222.7 590.3 228.6 593.7 235.2 594.8 C 241.7 595.9 248.6 595.5 254.9 593.9 C 259.2 592.8 263.4 591.6 267.4 589.9 C 275.4 586.4 281.7 581.0 286.9 574.1 C 292.7 566.2 297.9 557.7 302.1 548.9 C 304.6 543.6 306.7 538.1 308.9 532.7 C 310.6 528.1 312.3 523.4 313.6 518.7 C 317.4 504.7 318.7 490.2 319.8 475.8 C 320.7 463.4 321.0 451.0 319.9 438.6 C 318.6 423.1 314.5 408.2 311.5 393.0 C 311.5 393.0 310.7 393.8 310.3 394.2 C 309.4 394.9 308.4 395.8 307.5 396.5 C 303.1 399.9 298.6 403.1 293.9 406.1 C 287.4 410.1 280.5 412.2 273.2 414.2 C 267.8 415.6 262.4 416.6 256.8 417.1 C 246.3 418.0 235.7 416.7 225.7 413.2 C 220.3 411.2 214.9 409.1 210.1 406.0 C 204.3 402.3 198.7 398.2 194.4 392.7 C 188.6 385.0 185.2 375.7 183.3 366.4 C 181.3 357.0 180.3 347.4 181.0 337.9 C 181.4 332.7 182.3 327.7 183.7 322.7 C 185.0 317.7 186.4 312.8 188.5 308.1 C 191.2 302.1 195.1 296.4 199.4 291.5 C 201.6 289.1 204.0 287.1 206.5 285.0 C 208.7 283.2 211.1 281.4 213.6 279.9 C 218.3 277.2 223.7 275.3 228.9 273.9 C 235.9 272.1 242.6 270.7 249.8 270.3 C 258.6 269.7 267.7 269.3 276.4 271.3 C 279.4 272.0 282.1 273.0 284.9 274.1 C 292.1 276.9 299.6 279.7 305.1 285.3 C 305.1 285.3 304.8 283.1 304.6 281.9 C 304.4 280.1 304.1 278.3 304.0 276.5 C 303.4 269.3 303.1 262.1 302.9 254.9 C 302.5 245.2 302.9 235.5 303.1 225.9 C 303.2 218.0 303.2 210.2 303.5 202.4 C 303.6 198.1 304.0 193.9 304.1 189.6 C 304.1 186.9 304.1 183.4 304.1 180.7 C 304.1 179.8 303.5 177.9 304.0 176.9 C 304.3 176.3 304.9 176.6 305.2 177.0" />
        </g>
    </g>
</svg>